<svg width="285" height="212" viewBox="0 0 285 212" fill="none" xmlns="http://www.w3.org/2000/svg">
<path d="M0 182.391H6.49417L7.06524 185.242H7.34413C7.79567 184.613 8.36673 184.051 9.04403 183.529C10.1729 182.672 11.8728 181.816 14.1305 181.816C17.0123 181.816 18.8716 182.846 20.1731 183.81C20.9035 184.439 21.5277 185.068 22.0324 185.804H22.3113C22.8691 185.068 23.5596 184.439 24.3432 183.81C25.6978 182.846 27.7829 181.816 30.7843 181.816C36.7206 181.816 41.5149 186.942 41.5149 193.488V211.424H34.4497V194.05C34.4497 190.356 32.524 188.361 29.6421 188.361C26.4814 188.361 24.2768 190.864 24.2768 194.05V211.424H17.2116V194.05C17.2116 190.356 15.2859 188.361 12.404 188.361C9.24324 188.361 7.03868 190.864 7.03868 194.05V211.424H0V182.391Z" fill="#010313"/>
<path d="M46.0436 171H53.6666V177.827H46.0436V171ZM46.3225 182.391H53.3877V211.438H46.3225V182.391Z" fill="#010313"/>
<path d="M79.0855 208.292H78.8066C78.2355 209.028 77.5583 209.658 76.7747 210.166C75.4201 211.076 73.2686 211.987 70.3336 211.987C62.9895 211.987 57.0531 206.003 57.0531 196.901C57.0531 187.799 62.9895 181.816 70.3336 181.816C73.2155 181.816 75.1943 182.779 76.5489 183.69C77.3325 184.198 78.0231 184.827 78.5277 185.51H78.8066V171.562H85.8719V211.424H79.6566L79.0855 208.292ZM78.8066 196.914C78.8066 191.453 75.7521 188.374 71.4625 188.374C67.1729 188.374 64.1184 191.453 64.1184 196.914C64.1184 202.376 67.1729 205.454 71.4625 205.454C75.7521 205.454 78.8066 202.376 78.8066 196.914Z" fill="#010313"/>
<path d="M87.8374 182.391H95.1815L99.9891 201.466H101.118L105.925 182.391H113.841L118.648 201.466H119.777L124.585 182.391H131.929L124.585 211.438H115.262L110.454 192.644H109.325L104.518 211.438H95.1948L87.8507 182.391H87.8374Z" fill="#010313"/>
<path d="M159.579 202.884C158.955 205.16 155.395 212 146.298 212C137.825 212 131.61 205.736 131.61 196.914C131.61 188.093 137.825 181.829 146.298 181.829C154.213 181.829 160.415 188.093 160.415 196.352C160.415 197.209 160.309 197.892 160.243 198.4L160.137 199.203H138.662C139.286 203.246 142.274 206.043 146.285 206.043C149.618 206.043 151.65 204.103 152.221 202.911H159.565L159.579 202.884ZM153.363 194.344C152.739 190.65 150.309 187.799 146.298 187.799C142.009 187.799 139.512 190.65 138.675 194.344H153.363Z" fill="#010313"/>
<path d="M168.902 202.603C168.902 204.022 170.655 206.298 174.546 206.298C178.437 206.298 179.911 204.932 179.911 203.166C179.911 201.399 179.114 200.435 175.954 199.926L171.438 199.19C165.502 198.226 162.115 195.777 162.115 190.931C162.115 186.086 166.352 181.816 174.267 181.816C182.687 181.816 186.419 187.799 186.419 191.212H179.632C179.632 189.445 177.654 187.518 174.267 187.518C170.88 187.518 169.181 189.164 169.181 190.931C169.181 192.296 170.482 193.207 173.138 193.608L177.946 194.344C183.882 195.255 186.99 197.985 186.99 203.166C186.99 207.944 182.979 211.987 174.559 211.987C163.829 211.987 162.129 204.584 162.129 202.59H168.902V202.603Z" fill="#010313"/>
<path d="M191.492 189.218H186.976V182.378H191.492V174.132H198.557V182.391H205.051V189.231H198.557V203.179C198.557 204.491 199.234 205.173 200.536 205.173H205.051V211.438H198.836C194.028 211.438 191.492 208.935 191.492 204.598V189.218Z" fill="#010313"/>
<path d="M234.428 202.884C233.804 205.16 230.244 212 221.147 212C212.674 212 206.459 205.736 206.459 196.914C206.459 188.093 212.674 181.829 221.147 181.829C229.062 181.829 235.264 188.093 235.264 196.352C235.264 197.209 235.158 197.892 235.092 198.4L234.986 199.203H213.511C214.135 203.246 217.123 206.043 221.134 206.043C224.467 206.043 226.499 204.103 227.07 202.911H234.414L234.428 202.884ZM228.212 194.344C227.588 190.65 225.158 187.799 221.147 187.799C216.858 187.799 214.361 190.65 213.524 194.344H228.212Z" fill="#010313"/>
<path d="M244.88 182.391L245.437 184.948H245.716C246.048 184.493 246.447 184.091 246.965 183.69C247.815 183.06 249.05 182.378 250.803 182.378H256.447V189.218H251.36C247.801 189.218 245.995 191.038 245.995 194.626V211.424H238.93V182.391H244.88Z" fill="#010313"/>
<path d="M258.439 182.391H264.933L265.504 185.242H265.783C266.288 184.613 266.965 184.051 267.709 183.529C269.01 182.672 270.989 181.816 273.698 181.816C280.192 181.816 285 186.661 285 194.063V211.438H277.935V194.639C277.935 190.944 275.385 188.374 271.719 188.374C268.054 188.374 265.504 190.944 265.504 194.639V211.438H258.439V182.391Z" fill="#010313"/>
<path d="M221.914 0.134951L113.429 107.736V152H158.011L221.914 88.6179V152H285V17.7686L267.221 0.134951H221.914Z" fill="#010313"/>
<path d="M162.556 0H108.44L0 107.556V151.82H44.5823L180.5 17.7686L162.556 0Z" fill="#010313"/>
</svg>
