<svg width="811" height="127" viewBox="0 0 811 127" fill="none" xmlns="http://www.w3.org/2000/svg">
<path d="M237.195 14.7881V126.504H184.69V73.7529L131.507 126.504H94.4023V89.665L184.69 0.112305H222.398L237.195 14.7881ZM546.984 69.6143C562.014 69.6143 573.79 81.4264 573.79 96.999C573.79 98.6142 573.589 99.9013 573.463 100.86L573.261 102.375H532.485C533.671 109.997 539.344 115.272 546.959 115.272C553.288 115.272 557.147 111.613 558.231 109.366H572.177L572.201 109.315C571.016 113.606 564.258 126.504 546.984 126.504C530.896 126.504 519.095 114.691 519.095 98.0586C519.095 81.4262 530.896 69.6144 546.984 69.6143ZM689.107 69.6143C704.137 69.6143 715.913 81.4264 715.913 96.999C715.913 98.6142 715.711 99.9013 715.585 100.86L715.384 102.375H674.607C675.793 109.997 681.467 115.272 689.082 115.272C695.411 115.272 699.27 111.613 700.354 109.366H714.299L714.324 109.315C713.139 113.606 706.381 126.504 689.107 126.504C673.019 126.504 661.218 114.691 661.218 98.0586C661.218 81.4261 673.019 69.6143 689.107 69.6143ZM432.248 125.419H420.446L419.361 119.513H418.832C417.748 120.901 416.461 122.087 414.974 123.046C412.402 124.762 408.317 126.478 402.744 126.479C388.799 126.479 377.527 115.197 377.526 98.0342C377.526 80.8715 388.799 69.5889 402.744 69.5889C408.216 69.589 411.973 71.4068 414.545 73.123C416.033 74.0821 417.344 75.2685 418.303 76.5557H418.832V50.2559H432.248V125.419ZM600.092 69.5889C616.079 69.589 623.165 80.8716 623.165 87.3076H610.279C610.279 83.9761 606.522 80.3409 600.092 80.3408C593.661 80.3408 590.434 83.4458 590.434 86.7773C590.434 89.3516 592.905 91.068 597.948 91.8252L607.076 93.2129C618.348 94.9292 624.249 100.078 624.249 109.846C624.249 118.856 616.634 126.478 600.646 126.479C580.272 126.479 577.043 112.522 577.043 108.761H589.904V108.786C589.905 111.462 593.233 115.752 600.621 115.752C608.01 115.752 610.809 113.177 610.809 109.846C610.809 106.514 609.296 104.697 603.294 103.738L594.721 102.35C583.449 100.532 577.018 95.9138 577.018 86.7773C577.018 77.6407 585.062 69.5889 600.092 69.5889ZM150.224 14.7881L37.1045 126.354H0V89.5146L90.25 0H135.289L150.224 14.7881ZM370.567 125.443H357.151V70.6748H370.567V125.443ZM459.053 106.641H461.196L470.325 70.6748H485.354L494.483 106.641H496.626L505.755 70.6748H519.7L505.755 125.443H488.053L478.924 90.0078H476.78L467.652 125.443H449.95L436.005 70.6748H449.925L459.053 106.641ZM646.213 70.6748H658.544V83.5713H646.213V109.871C646.213 112.345 647.499 113.632 649.971 113.632H658.544V125.443H646.743C637.615 125.443 632.798 120.724 632.798 112.547V83.5469H624.225V70.6494H632.798V55.1016H646.213V70.6748ZM788.891 69.5889C801.222 69.5889 810.35 78.7256 810.351 92.6826V125.443H796.935V93.7686C796.935 86.8026 792.093 81.9562 785.134 81.9561C778.174 81.9561 773.332 86.8025 773.332 93.7686V125.443H759.917V70.6748H772.248L773.332 76.0508H773.861C774.82 74.8645 776.105 73.8037 777.518 72.8193C779.989 71.204 783.746 69.5889 788.891 69.5889ZM327.647 69.5889C338.919 69.5889 348.023 79.2557 348.023 91.5977V125.419H334.607V92.6582C334.607 85.6924 330.951 81.9318 325.479 81.9316C319.478 81.9316 315.291 86.6512 315.291 92.6582V125.419H301.876V92.6582C301.876 85.6922 298.219 81.9316 292.747 81.9316C286.746 81.9318 282.56 86.6514 282.56 92.6582V125.419H269.195V70.6748H281.526L282.61 76.0508H283.14C283.997 74.8645 285.081 73.8037 286.367 72.8193C288.511 71.2041 291.739 69.5889 296.025 69.5889C301.497 69.5889 305.028 71.5324 307.499 73.3496C308.886 74.5358 310.071 75.7223 311.029 77.1104H311.56C312.619 75.7223 313.929 74.5357 315.417 73.3496C317.989 71.5324 321.949 69.5889 327.647 69.5889ZM756.134 83.5469H746.476C739.718 83.547 736.288 86.9791 736.288 93.7432V125.419H722.873V70.6748H734.17L735.229 75.4951H735.759C736.389 74.6371 737.146 73.8801 738.129 73.123C739.743 71.9368 742.088 70.6494 745.417 70.6494H756.134V83.5469ZM404.887 81.9561C396.742 81.9563 390.943 87.7615 390.942 98.0586C390.942 108.356 396.742 114.162 404.887 114.162C413.032 114.162 418.832 108.356 418.832 98.0586C418.832 87.7613 413.032 81.9561 404.887 81.9561ZM546.984 80.8711C538.84 80.8712 534.098 86.247 532.51 93.2129H560.4C559.215 86.2469 554.6 80.8711 546.984 80.8711ZM689.107 80.8711C680.962 80.8711 676.221 86.247 674.633 93.2129H702.522C701.337 86.247 696.723 80.8711 689.107 80.8711ZM371.097 62.0674H356.622V49.1963H371.097V62.0674Z" fill="#010313"/>
</svg>
